<?xml version="1.0" standalone="yes"?>

<svg version="1.1" viewBox="0.0 0.0 580.3149606299213 314.8530183727034" fill="none" stroke="none" stroke-linecap="square" stroke-miterlimit="10" xmlns="http://www.w3.org/2000/svg" xmlns:xlink="http://www.w3.org/1999/xlink"><clipPath id="p.0"><path d="m0 0l580.31494 0l0 314.85303l-580.31494 0l0 -314.85303z" clip-rule="nonzero"></path></clipPath><g clip-path="url(#p.0)"><path fill="#000000" fill-opacity="0.0" d="m0 0l580.31494 0l0 314.85303l-580.31494 0z" fill-rule="nonzero"></path><path fill="#ffe599" d="m8.787401 5.3543305l556.8819 0l0 300.9449l-556.8819 0z" fill-rule="nonzero"></path><path stroke="#000000" stroke-width="1.0" stroke-linejoin="round" stroke-linecap="butt" d="m8.787401 5.3543305l556.8819 0l0 300.9449l-556.8819 0z" fill-rule="nonzero"></path><path fill="#f3f3f3" d="m20.036745 72.855644l254.51968 0l0 217.95273l-254.51968 0z" fill-rule="nonzero"></path><path fill="#000000" d="m52.021122 91.739395l-4.078125 13.15625l-4.484375 0l-2.671875 -8.875l-2.640625 8.875l-4.53125 0l-4.046877 -13.15625l4.421877 0l2.25 9.0625l2.8125 -9.0625l3.75 0l2.671875 9.0625l2.203125 -9.0625l4.34375 0zm6.7421875 13.15625l-4.21875 0l0 -13.15625l4.21875 0l0 13.15625zm0.109375 -15.03125l-4.453125 0l0 -3.203125l4.453125 0l0 3.203125zm15.218746 15.03125l-12.359371 0l0 -2.703125l6.937496 -7.375l-6.656246 0l0 -3.078125l11.953121 0l0 2.65625l-6.828125 7.359375l6.953125 0l0 3.140625zm14.3203125 0l-12.359375 0l0 -2.703125l6.9375 -7.375l-6.65625 0l0 -3.078125l11.953125 0l0 2.65625l-6.828125 7.359375l6.953125 0l0 3.140625zm7.1953125 0l-4.21875 0l0 -13.15625l4.21875 0l0 13.15625zm0.109375 -15.03125l-4.453125 0l0 -3.203125l4.453125 0l0 3.203125zm12.109375 8.953125l-8.9375 0l0 -3.375l8.9375 0l0 3.375zm10.128906 6.4375q-1.71875 0 -3.140625 -0.40625q-1.421875 -0.421875 -2.484375 -1.28125q-1.03125 -0.859375 -1.609375 -2.15625q-0.578125 -1.296875 -0.578125 -3.046875q0 -1.84375 0.609375 -3.171875q0.625 -1.34375 1.71875 -2.21875q1.078125 -0.828125 2.46875 -1.21875q1.390625 -0.390625 2.890625 -0.390625q1.34375 0 2.484375 0.296875q1.140625 0.296875 2.125 0.765625l0 3.59375l-0.59375 0q-0.25 -0.203125 -0.59375 -0.484375q-0.34375 -0.28125 -0.859375 -0.5625q-0.46875 -0.25 -1.046875 -0.421875q-0.578125 -0.171875 -1.34375 -0.171875q-1.6875 0 -2.59375 1.078125q-0.90625 1.0625 -0.90625 2.90625q0 1.90625 0.921875 2.890625q0.9375 0.984375 2.65625 0.984375q0.796875 0 1.4375 -0.1875q0.640625 -0.1875 1.0625 -0.421875q0.390625 -0.234375 0.6875 -0.484375q0.3125 -0.265625 0.578125 -0.515625l0.59375 0l0 3.59375q-1.0 0.46875 -2.09375 0.75q-1.078125 0.28125 -2.390625 0.28125zm20.730469 -6.9375q0 3.25 -1.90625 5.125q-1.890625 1.859375 -5.3125 1.859375q-3.421875 0 -5.3125 -1.859375q-1.890625 -1.875 -1.890625 -5.125q0 -3.265625 1.90625 -5.125q1.90625 -1.875 5.296875 -1.875q3.453125 0 5.328125 1.875q1.890625 1.875 1.890625 5.125zm-5.203125 3.203125q0.421875 -0.5 0.625 -1.203125q0.203125 -0.71875 0.203125 -1.96875q0 -1.171875 -0.21875 -1.953125q-0.203125 -0.78125 -0.578125 -1.25q-0.375 -0.484375 -0.90625 -0.671875q-0.53125 -0.203125 -1.140625 -0.203125q-0.609375 0 -1.078125 0.171875q-0.46875 0.15625 -0.90625 0.640625q-0.390625 0.453125 -0.625 1.25q-0.21875 0.796875 -0.21875 2.015625q0 1.078125 0.1875 1.875q0.203125 0.78125 0.59375 1.265625q0.375 0.453125 0.890625 0.671875q0.53125 0.203125 1.203125 0.203125q0.5625 0 1.078125 -0.1875q0.53125 -0.203125 0.890625 -0.65625zm17.757812 -5.765625l-0.375 0q-0.265625 -0.09375 -0.875 -0.140625q-0.59375 -0.046875 -0.984375 -0.046875q-0.90625 0 -1.59375 0.125q-0.6875 0.109375 -1.484375 0.390625l0 8.8125l-4.21875 0l0 -13.15625l4.21875 0l0 1.921875q1.390625 -1.1875 2.421875 -1.578125q1.03125 -0.390625 1.890625 -0.390625q0.234375 0 0.515625 0.015625q0.28125 0 0.484375 0.03125l0 4.015625zm15.3515625 3.34375l-9.65625 0q0.09375 1.546875 1.171875 2.375q1.09375 0.8125 3.203125 0.8125q1.328125 0 2.578125 -0.484375q1.265625 -0.484375 1.984375 -1.03125l0.46875 0l0 3.390625q-1.421875 0.5625 -2.6875 0.828125q-1.265625 0.265625 -2.796875 0.265625q-3.96875 0 -6.078125 -1.78125q-2.109375 -1.796875 -2.109375 -5.078125q0 -3.265625 2.0 -5.171875q2.0 -1.90625 5.484375 -1.90625q3.203125 0 4.8125 1.625q1.625 1.625 1.625 4.671875l0 1.484375zm-4.1875 -2.484375q-0.046875 -1.3125 -0.671875 -1.984375q-0.609375 -0.671875 -1.921875 -0.671875q-1.21875 0 -2.015625 0.640625q-0.78125 0.625 -0.875 2.015625l5.484375 0z" fill-rule="nonzero"></path><path fill="#000000" d="m52.021122 120.739395l-4.078125 13.15625l-4.484375 0l-2.671875 -8.875l-2.640625 8.875l-4.53125 0l-4.046877 -13.15625l4.421877 0l2.25 9.0625l2.8125 -9.0625l3.75 0l2.671875 9.0625l2.203125 -9.0625l4.34375 0zm6.7421875 13.15625l-4.21875 0l0 -13.15625l4.21875 0l0 13.15625zm0.109375 -15.03125l-4.453125 0l0 -3.203125l4.453125 0l0 3.203125zm15.218746 15.03125l-12.359371 0l0 -2.703125l6.937496 -7.375l-6.656246 0l0 -3.078125l11.953121 0l0 2.65625l-6.828125 7.359375l6.953125 0l0 3.140625zm14.3203125 0l-12.359375 0l0 -2.703125l6.9375 -7.375l-6.65625 0l0 -3.078125l11.953125 0l0 2.65625l-6.828125 7.359375l6.953125 0l0 3.140625zm7.1953125 0l-4.21875 0l0 -13.15625l4.21875 0l0 13.15625zm0.109375 -15.03125l-4.453125 0l0 -3.203125l4.453125 0l0 3.203125zm12.109375 8.953125l-8.9375 0l0 -3.375l8.9375 0l0 3.375zm7.5039062 6.078125l-4.21875 0l0 -13.15625l4.21875 0l0 13.15625zm0.109375 -15.03125l-4.453125 0l0 -3.203125l4.453125 0l0 3.203125zm12.28125 14.90625q-0.671875 0.1875 -1.4375 0.28125q-0.765625 0.109375 -1.859375 0.109375q-2.46875 0 -3.671875 -1.0q-1.203125 -1.0 -1.203125 -3.421875l0 -6.140625l-1.734375 0l0 -2.859375l1.734375 0l0 -3.765625l4.21875 0l0 3.765625l3.953125 0l0 2.859375l-3.953125 0l0 4.65625q0 0.6875 0.015625 1.203125q0.015625 0.515625 0.1875 0.9375q0.171875 0.40625 0.578125 0.65625q0.421875 0.234375 1.21875 0.234375q0.328125 0 0.859375 -0.140625q0.53125 -0.140625 0.75 -0.265625l0.34375 0l0 2.890625zm10.933594 0q-0.671875 0.1875 -1.4375 0.28125q-0.765625 0.109375 -1.859375 0.109375q-2.46875 0 -3.671875 -1.0q-1.203125 -1.0 -1.203125 -3.421875l0 -6.140625l-1.734375 0l0 -2.859375l1.734375 0l0 -3.765625l4.21875 0l0 3.765625l3.953125 0l0 2.859375l-3.953125 0l0 4.65625q0 0.6875 0.015625 1.203125q0.015625 0.515625 0.1875 0.9375q0.171875 0.40625 0.578125 0.65625q0.421875 0.234375 1.21875 0.234375q0.328125 0 0.859375 -0.140625q0.53125 -0.140625 0.75 -0.265625l0.34375 0l0 2.890625zm11.058594 -15.015625l-0.328125 0q-0.28125 -0.078125 -0.734375 -0.1875q-0.4375 -0.109375 -0.953125 -0.109375q-1.25 0 -1.6875 0.453125q-0.4375 0.4375 -0.4375 1.71875l0 0.109375l3.25 0l0 2.859375l-3.109375 0l0 10.296875l-4.21875 0l0 -10.296875l-1.8125 0l0 -2.859375l1.8125 0l0 -0.375q0 -2.40625 1.28125 -3.609375q1.28125 -1.21875 3.890625 -1.21875q0.9375 0 1.6875 0.078125q0.765625 0.0625 1.359375 0.15625l0 2.984375z" fill-rule="nonzero"></path><path fill="#000000" d="m52.021122 149.7394l-4.078125 13.15625l-4.484375 0l-2.671875 -8.875l-2.640625 8.875l-4.53125 0l-4.046877 -13.15625l4.421877 0l2.25 9.0625l2.8125 -9.0625l3.75 0l2.671875 9.0625l2.203125 -9.0625l4.34375 0zm6.7421875 13.15625l-4.21875 0l0 -13.15625l4.21875 0l0 13.15625zm0.109375 -15.03125l-4.453125 0l0 -3.203125l4.453125 0l0 3.203125zm15.218746 15.03125l-12.359371 0l0 -2.703125l6.937496 -7.375l-6.656246 0l0 -3.078125l11.953121 0l0 2.65625l-6.828125 7.359375l6.953125 0l0 3.140625zm14.3203125 0l-12.359375 0l0 -2.703125l6.9375 -7.375l-6.65625 0l0 -3.078125l11.953125 0l0 2.65625l-6.828125 7.359375l6.953125 0l0 3.140625zm7.1953125 0l-4.21875 0l0 -13.15625l4.21875 0l0 13.15625zm0.109375 -15.03125l-4.453125 0l0 -3.203125l4.453125 0l0 3.203125zm12.109375 8.953125l-8.9375 0l0 -3.375l8.9375 0l0 3.375zm14.722656 1.90625q0 2.03125 -1.828125 3.28125q-1.828125 1.25 -5.015625 1.25q-1.75 0 -3.1875 -0.328125q-1.421875 -0.328125 -2.296875 -0.71875l0 -3.46875l0.390625 0q0.3125 0.21875 0.734375 0.484375q0.421875 0.265625 1.171875 0.5625q0.65625 0.265625 1.484375 0.46875q0.84375 0.1875 1.796875 0.1875q1.234375 0 1.828125 -0.265625q0.609375 -0.28125 0.609375 -0.828125q0 -0.46875 -0.359375 -0.6875q-0.34375 -0.21875 -1.328125 -0.421875q-0.46875 -0.109375 -1.28125 -0.21875q-0.796875 -0.125 -1.453125 -0.3125q-1.796875 -0.46875 -2.671875 -1.453125q-0.859375 -0.984375 -0.859375 -2.46875q0 -1.890625 1.796875 -3.15625q1.796875 -1.265625 4.921875 -1.265625q1.46875 0 2.828125 0.3125q1.359375 0.296875 2.109375 0.625l0 3.328125l-0.359375 0q-0.9375 -0.640625 -2.140625 -1.046875q-1.203125 -0.40625 -2.421875 -0.40625q-1.03125 0 -1.734375 0.28125q-0.6875 0.28125 -0.6875 0.796875q0 0.46875 0.3125 0.71875q0.328125 0.25 1.5 0.5q0.640625 0.125 1.375 0.25q0.75 0.125 1.5 0.3125q1.671875 0.421875 2.46875 1.359375q0.796875 0.9375 0.796875 2.328125zm9.644531 4.53125q-1.71875 0 -3.140625 -0.40625q-1.421875 -0.421875 -2.484375 -1.28125q-1.03125 -0.859375 -1.609375 -2.15625q-0.578125 -1.296875 -0.578125 -3.046875q0 -1.84375 0.609375 -3.171875q0.625 -1.34375 1.71875 -2.21875q1.078125 -0.828125 2.46875 -1.21875q1.390625 -0.390625 2.890625 -0.390625q1.34375 0 2.484375 0.296875q1.140625 0.296875 2.125 0.765625l0 3.59375l-0.59375 0q-0.25 -0.203125 -0.59375 -0.484375q-0.34375 -0.28125 -0.859375 -0.5625q-0.46875 -0.25 -1.046875 -0.421875q-0.578125 -0.171875 -1.34375 -0.171875q-1.6875 0 -2.59375 1.078125q-0.90625 1.0625 -0.90625 2.90625q0 1.90625 0.921875 2.890625q0.9375 0.984375 2.65625 0.984375q0.796875 0 1.4375 -0.1875q0.640625 -0.1875 1.0625 -0.421875q0.390625 -0.234375 0.6875 -0.484375q0.3125 -0.265625 0.578125 -0.515625l0.59375 0l0 3.59375q-1.0 0.46875 -2.09375 0.75q-1.078125 0.28125 -2.390625 0.28125zm20.496094 -0.359375l-4.25 0l0 -6.53125q0 -0.796875 -0.078125 -1.578125q-0.078125 -0.796875 -0.28125 -1.171875q-0.234375 -0.4375 -0.6875 -0.625q-0.453125 -0.203125 -1.265625 -0.203125q-0.5625 0 -1.15625 0.1875q-0.59375 0.1875 -1.28125 0.59375l0 9.328125l-4.21875 0l0 -18.234375l4.21875 0l0 6.53125q1.125 -0.890625 2.15625 -1.359375q1.03125 -0.46875 2.296875 -0.46875q2.140625 0 3.34375 1.25q1.203125 1.234375 1.203125 3.71875l0 8.5625zm16.832031 -5.796875l-9.65625 0q0.09375 1.546875 1.171875 2.375q1.09375 0.8125 3.203125 0.8125q1.328125 0 2.578125 -0.484375q1.265625 -0.484375 1.984375 -1.03125l0.46875 0l0 3.390625q-1.421875 0.5625 -2.6875 0.828125q-1.265625 0.265625 -2.796875 0.265625q-3.96875 0 -6.078125 -1.78125q-2.109375 -1.796875 -2.109375 -5.078125q0 -3.265625 2.0 -5.171875q2.0 -1.90625 5.484375 -1.90625q3.203125 0 4.8125 1.625q1.625 1.625 1.625 4.671875l0 1.484375zm-4.1875 -2.484375q-0.046875 -1.3125 -0.671875 -1.984375q-0.609375 -0.671875 -1.921875 -0.671875q-1.21875 0 -2.015625 0.640625q-0.78125 0.625 -0.875 2.015625l5.484375 0zm20.03125 -1.046875l0 9.328125l-4.234375 0l0 -6.578125q0 -0.953125 -0.046875 -1.625q-0.046875 -0.6875 -0.265625 -1.109375q-0.203125 -0.421875 -0.640625 -0.609375q-0.421875 -0.1875 -1.203125 -0.1875q-0.609375 0 -1.203125 0.25q-0.578125 0.25 -1.046875 0.53125l0 9.328125l-4.21875 0l0 -13.15625l4.21875 0l0 1.453125q1.078125 -0.859375 2.078125 -1.34375q1.0 -0.484375 2.203125 -0.484375q1.296875 0 2.296875 0.59375q1.0 0.578125 1.5625 1.703125q1.265625 -1.078125 2.453125 -1.6875q1.203125 -0.609375 2.34375 -0.609375q2.140625 0 3.25 1.28125q1.109375 1.28125 1.109375 3.6875l0 8.5625l-4.25 0l0 -6.578125q0 -0.96875 -0.046875 -1.640625q-0.03125 -0.671875 -0.25 -1.09375q-0.1875 -0.421875 -0.625 -0.609375q-0.4375 -0.1875 -1.21875 -0.1875q-0.53125 0 -1.03125 0.1875q-0.5 0.171875 -1.234375 0.59375zm20.503906 5.890625l0 -2.734375q-0.859375 0.0625 -1.859375 0.1875q-1.0 0.125 -1.515625 0.28125q-0.625 0.203125 -0.96875 0.59375q-0.328125 0.375 -0.328125 1.0q0 0.40625 0.0625 0.671875q0.078125 0.25 0.359375 0.484375q0.265625 0.234375 0.640625 0.34375q0.375 0.109375 1.171875 0.109375q0.640625 0 1.28125 -0.25q0.65625 -0.265625 1.15625 -0.6875zm0 2.046875q-0.34375 0.25 -0.859375 0.625q-0.5 0.359375 -0.9375 0.5625q-0.625 0.28125 -1.296875 0.421875q-0.65625 0.140625 -1.453125 0.140625q-1.875 0 -3.140625 -1.15625q-1.265625 -1.171875 -1.265625 -2.984375q0 -1.4375 0.640625 -2.34375q0.640625 -0.921875 1.828125 -1.453125q1.171875 -0.515625 2.90625 -0.734375q1.734375 -0.234375 3.59375 -0.34375l0 -0.0625q0 -1.09375 -0.890625 -1.5q-0.890625 -0.421875 -2.625 -0.421875q-1.046875 0 -2.234375 0.375q-1.171875 0.359375 -1.6875 0.5625l-0.390625 0l0 -3.171875q0.671875 -0.1875 2.171875 -0.421875q1.515625 -0.234375 3.015625 -0.234375q3.609375 0 5.203125 1.109375q1.59375 1.09375 1.59375 3.46875l0 8.953125l-4.171875 0l0 -1.390625z" fill-rule="nonzero"></path><path fill="#000000" d="m52.021122 178.7394l-4.078125 13.15625l-4.484375 0l-2.671875 -8.875l-2.640625 8.875l-4.53125 0l-4.046877 -13.15625l4.421877 0l2.25 9.0625l2.8125 -9.0625l3.75 0l2.671875 9.0625l2.203125 -9.0625l4.34375 0zm6.7421875 13.15625l-4.21875 0l0 -13.15625l4.21875 0l0 13.15625zm0.109375 -15.03125l-4.453125 0l0 -3.203125l4.453125 0l0 3.203125zm15.218746 15.03125l-12.359371 0l0 -2.703125l6.937496 -7.375l-6.656246 0l0 -3.078125l11.953121 0l0 2.65625l-6.828125 7.359375l6.953125 0l0 3.140625zm14.3203125 0l-12.359375 0l0 -2.703125l6.9375 -7.375l-6.65625 0l0 -3.078125l11.953125 0l0 2.65625l-6.828125 7.359375l6.953125 0l0 3.140625zm7.1953125 0l-4.21875 0l0 -13.15625l4.21875 0l0 13.15625zm0.109375 -15.03125l-4.453125 0l0 -3.203125l4.453125 0l0 3.203125zm12.109375 8.953125l-8.9375 0l0 -3.375l8.9375 0l0 3.375zm11.816406 -9.0625l-0.328125 0q-0.28125 -0.078125 -0.734375 -0.1875q-0.4375 -0.109375 -0.953125 -0.109375q-1.25 0 -1.6875 0.453125q-0.4375 0.4375 -0.4375 1.71875l0 0.109375l3.25 0l0 2.859375l-3.109375 0l0 10.296875l-4.21875 0l0 -10.296875l-1.8125 0l0 -2.859375l1.8125 0l0 -0.375q0 -2.40625 1.28125 -3.609375q1.28125 -1.21875 3.890625 -1.21875q0.9375 0 1.6875 0.078125q0.765625 0.0625 1.359375 0.15625l0 2.984375zm9.574219 11.703125l0 -2.734375q-0.859375 0.0625 -1.859375 0.1875q-1.0 0.125 -1.515625 0.28125q-0.625 0.203125 -0.96875 0.59375q-0.328125 0.375 -0.328125 1.0q0 0.40625 0.0625 0.671875q0.078125 0.25 0.359375 0.484375q0.265625 0.234375 0.640625 0.34375q0.375 0.109375 1.171875 0.109375q0.640625 0 1.28125 -0.25q0.65625 -0.265625 1.15625 -0.6875zm0 2.046875q-0.34375 0.25 -0.859375 0.625q-0.5 0.359375 -0.9375 0.5625q-0.625 0.28125 -1.296875 0.421875q-0.65625 0.140625 -1.453125 0.140625q-1.875 0 -3.140625 -1.15625q-1.265625 -1.171875 -1.265625 -2.984375q0 -1.4375 0.640625 -2.34375q0.640625 -0.921875 1.828125 -1.453125q1.171875 -0.515625 2.90625 -0.734375q1.734375 -0.234375 3.59375 -0.34375l0 -0.0625q0 -1.09375 -0.890625 -1.5q-0.890625 -0.421875 -2.625 -0.421875q-1.046875 0 -2.234375 0.375q-1.171875 0.359375 -1.6875 0.5625l-0.390625 0l0 -3.171875q0.671875 -0.1875 2.171875 -0.421875q1.515625 -0.234375 3.015625 -0.234375q3.609375 0 5.203125 1.109375q1.59375 1.09375 1.59375 3.46875l0 8.953125l-4.171875 0l0 -1.390625zm14.90625 1.75q-1.71875 0 -3.140625 -0.40625q-1.421875 -0.421875 -2.484375 -1.28125q-1.03125 -0.859375 -1.609375 -2.15625q-0.578125 -1.296875 -0.578125 -3.046875q0 -1.84375 0.609375 -3.171875q0.625 -1.34375 1.71875 -2.21875q1.078125 -0.828125 2.46875 -1.21875q1.390625 -0.390625 2.890625 -0.390625q1.34375 0 2.484375 0.296875q1.140625 0.296875 2.125 0.765625l0 3.59375l-0.59375 0q-0.25 -0.203125 -0.59375 -0.484375q-0.34375 -0.28125 -0.859375 -0.5625q-0.46875 -0.25 -1.046875 -0.421875q-0.578125 -0.171875 -1.34375 -0.171875q-1.6875 0 -2.59375 1.078125q-0.90625 1.0625 -0.90625 2.90625q0 1.90625 0.921875 2.890625q0.9375 0.984375 2.65625 0.984375q0.796875 0 1.4375 -0.1875q0.640625 -0.1875 1.0625 -0.421875q0.390625 -0.234375 0.6875 -0.484375q0.3125 -0.265625 0.578125 -0.515625l0.59375 0l0 3.59375q-1.0 0.46875 -2.09375 0.75q-1.078125 0.28125 -2.390625 0.28125zm15.683594 -0.484375q-0.671875 0.1875 -1.4375 0.28125q-0.765625 0.109375 -1.859375 0.109375q-2.46875 0 -3.671875 -1.0q-1.203125 -1.0 -1.203125 -3.421875l0 -6.140625l-1.734375 0l0 -2.859375l1.734375 0l0 -3.765625l4.21875 0l0 3.765625l3.953125 0l0 2.859375l-3.953125 0l0 4.65625q0 0.6875 0.015625 1.203125q0.015625 0.515625 0.1875 0.9375q0.171875 0.40625 0.578125 0.65625q0.421875 0.234375 1.21875 0.234375q0.328125 0 0.859375 -0.140625q0.53125 -0.140625 0.75 -0.265625l0.34375 0l0 2.890625zm15.980469 -6.453125q0 3.25 -1.90625 5.125q-1.890625 1.859375 -5.3125 1.859375q-3.421875 0 -5.3125 -1.859375q-1.890625 -1.875 -1.890625 -5.125q0 -3.265625 1.90625 -5.125q1.90625 -1.875 5.296875 -1.875q3.453125 0 5.328125 1.875q1.890625 1.875 1.890625 5.125zm-5.203125 3.203125q0.421875 -0.5 0.625 -1.203125q0.203125 -0.71875 0.203125 -1.96875q0 -1.171875 -0.21875 -1.953125q-0.203125 -0.78125 -0.578125 -1.25q-0.375 -0.484375 -0.90625 -0.671875q-0.53125 -0.203125 -1.140625 -0.203125q-0.609375 0 -1.078125 0.171875q-0.46875 0.15625 -0.90625 0.640625q-0.390625 0.453125 -0.625 1.25q-0.21875 0.796875 -0.21875 2.015625q0 1.078125 0.1875 1.875q0.203125 0.78125 0.59375 1.265625q0.375 0.453125 0.890625 0.671875q0.53125 0.203125 1.203125 0.203125q0.5625 0 1.078125 -0.1875q0.53125 -0.203125 0.890625 -0.65625zm17.757812 -5.765625l-0.375 0q-0.265625 -0.09375 -0.875 -0.140625q-0.59375 -0.046875 -0.984375 -0.046875q-0.90625 0 -1.59375 0.125q-0.6875 0.109375 -1.484375 0.390625l0 8.8125l-4.21875 0l0 -13.15625l4.21875 0l0 1.921875q1.390625 -1.1875 2.421875 -1.578125q1.03125 -0.390625 1.890625 -0.390625q0.234375 0 0.515625 0.015625q0.28125 0 0.484375 0.03125l0 4.015625zm8.3359375 4.484375l3.0 -8.5l4.328125 0l-7.3125 17.984375l-4.5625 0l2.078125 -4.921875l-5.109375 -13.0625l4.421875 0l3.15625 8.5z" fill-rule="nonzero"></path><path fill="#000000" fill-opacity="0.0" d="m287.22836 5.3543305l0 300.9449" fill-rule="nonzero"></path><path stroke="#000000" stroke-width="1.0" stroke-linejoin="round" stroke-linecap="butt" d="m287.22836 5.3543305l0 300.9449" fill-rule="nonzero"></path><path fill="#ffffff" d="m299.88977 72.855644l254.51965 0l0 217.95273l-254.51965 0z" fill-rule="nonzero"></path><path fill="#000000" d="m331.87415 91.739395l-4.078125 13.15625l-4.484375 0l-2.671875 -8.875l-2.640625 8.875l-4.53125 0l-4.046875 -13.15625l4.421875 0l2.25 9.0625l2.8125 -9.0625l3.75 0l2.671875 9.0625l2.203125 -9.0625l4.34375 0zm6.7421875 13.15625l-4.21875 0l0 -13.15625l4.21875 0l0 13.15625zm0.109375 -15.03125l-4.453125 0l0 -3.203125l4.453125 0l0 3.203125zm15.21875 15.03125l-12.359375 0l0 -2.703125l6.9375 -7.375l-6.65625 0l0 -3.078125l11.953125 0l0 2.65625l-6.828125 7.359375l6.953125 0l0 3.140625zm14.3203125 0l-12.359375 0l0 -2.703125l6.9375 -7.375l-6.65625 0l0 -3.078125l11.953125 0l0 2.65625l-6.828125 7.359375l6.953125 0l0 3.140625zm7.1953125 0l-4.21875 0l0 -13.15625l4.21875 0l0 13.15625zm0.109375 -15.03125l-4.453125 0l0 -3.203125l4.453125 0l0 3.203125zm12.109375 8.953125l-8.9375 0l0 -3.375l8.9375 0l0 3.375zm7.5039062 6.078125l-4.21875 0l0 -18.234375l4.21875 0l0 18.234375zm11.953125 -3.4375l0 -2.734375q-0.859375 0.0625 -1.859375 0.1875q-1.0 0.125 -1.515625 0.28125q-0.625 0.203125 -0.96875 0.59375q-0.328125 0.375 -0.328125 1.0q0 0.40625 0.0625 0.671875q0.078125 0.25 0.359375 0.484375q0.265625 0.234375 0.640625 0.34375q0.375 0.109375 1.171875 0.109375q0.640625 0 1.28125 -0.25q0.65625 -0.265625 1.15625 -0.6875zm0 2.046875q-0.34375 0.25 -0.859375 0.625q-0.5 0.359375 -0.9375 0.5625q-0.625 0.28125 -1.296875 0.421875q-0.65625 0.140625 -1.453125 0.140625q-1.875 0 -3.140625 -1.15625q-1.265625 -1.171875 -1.265625 -2.984375q0 -1.4375 0.640625 -2.34375q0.640625 -0.921875 1.828125 -1.453125q1.171875 -0.515625 2.90625 -0.734375q1.734375 -0.234375 3.59375 -0.34375l0 -0.0625q0 -1.09375 -0.890625 -1.5q-0.890625 -0.421875 -2.625 -0.421875q-1.046875 0 -2.234375 0.375q-1.171875 0.359375 -1.6875 0.5625l-0.390625 0l0 -3.171875q0.671875 -0.1875 2.171875 -0.421875q1.515625 -0.234375 3.015625 -0.234375q3.609375 0 5.203125 1.109375q1.59375 1.09375 1.59375 3.46875l0 8.953125l-4.171875 0l0 -1.390625zm21.796875 -5.375q0 3.109375 -1.71875 5.078125q-1.71875 1.953125 -4.28125 1.953125q-1.109375 0 -1.9375 -0.25q-0.828125 -0.234375 -1.578125 -0.671875l-0.1875 0.65625l-4.03125 0l0 -18.234375l4.21875 0l0 6.4375q0.96875 -0.765625 1.984375 -1.25q1.015625 -0.484375 2.328125 -0.484375q2.5 0 3.84375 1.8125q1.359375 1.796875 1.359375 4.953125zm-4.359375 0.078125q0 -1.75 -0.59375 -2.703125q-0.59375 -0.953125 -2.125 -0.953125q-0.609375 0 -1.25 0.1875q-0.625 0.1875 -1.1875 0.515625l0 6.609375q0.453125 0.171875 0.859375 0.234375q0.40625 0.046875 0.984375 0.046875q1.671875 0 2.484375 -0.984375q0.828125 -0.984375 0.828125 -2.953125zm15.640625 0.609375l-8.9375 0l0 -3.375l8.9375 0l0 3.375zm14.722656 1.90625q0 2.03125 -1.828125 3.28125q-1.828125 1.25 -5.015625 1.25q-1.75 0 -3.1875 -0.328125q-1.421875 -0.328125 -2.296875 -0.71875l0 -3.46875l0.390625 0q0.3125 0.21875 0.734375 0.484375q0.421875 0.265625 1.171875 0.5625q0.65625 0.265625 1.484375 0.46875q0.84375 0.1875 1.796875 0.1875q1.234375 0 1.828125 -0.265625q0.609375 -0.28125 0.609375 -0.828125q0 -0.46875 -0.359375 -0.6875q-0.34375 -0.21875 -1.328125 -0.421875q-0.46875 -0.109375 -1.28125 -0.21875q-0.796875 -0.125 -1.453125 -0.3125q-1.796875 -0.46875 -2.671875 -1.453125q-0.859375 -0.984375 -0.859375 -2.46875q0 -1.890625 1.796875 -3.15625q1.796875 -1.265625 4.921875 -1.265625q1.46875 0 2.828125 0.3125q1.359375 0.296875 2.109375 0.625l0 3.328125l-0.359375 0q-0.9375 -0.640625 -2.140625 -1.046875q-1.203125 -0.40625 -2.421875 -0.40625q-1.03125 0 -1.734375 0.28125q-0.6875 0.28125 -0.6875 0.796875q0 0.46875 0.3125 0.71875q0.328125 0.25 1.5 0.5q0.640625 0.125 1.375 0.25q0.75 0.125 1.5 0.3125q1.671875 0.421875 2.46875 1.359375q0.796875 0.9375 0.796875 2.328125zm11.207031 4.046875q-0.671875 0.1875 -1.4375 0.28125q-0.765625 0.109375 -1.859375 0.109375q-2.46875 0 -3.671875 -1.0q-1.203125 -1.0 -1.203125 -3.421875l0 -6.140625l-1.734375 0l0 -2.859375l1.734375 0l0 -3.765625l4.21875 0l0 3.765625l3.953125 0l0 2.859375l-3.953125 0l0 4.65625q0 0.6875 0.015625 1.203125q0.015625 0.515625 0.1875 0.9375q0.171875 0.40625 0.578125 0.65625q0.421875 0.234375 1.21875 0.234375q0.328125 0 0.859375 -0.140625q0.53125 -0.140625 0.75 -0.265625l0.34375 0l0 2.890625zm10.496094 -3.3125l0 -2.734375q-0.859375 0.0625 -1.859375 0.1875q-1.0 0.125 -1.515625 0.28125q-0.625 0.203125 -0.96875 0.59375q-0.328125 0.375 -0.328125 1.0q0 0.40625 0.0625 0.671875q0.078125 0.25 0.359375 0.484375q0.265625 0.234375 0.640625 0.34375q0.375 0.109375 1.171875 0.109375q0.640625 0 1.28125 -0.25q0.65625 -0.265625 1.15625 -0.6875zm0 2.046875q-0.34375 0.25 -0.859375 0.625q-0.5 0.359375 -0.9375 0.5625q-0.625 0.28125 -1.296875 0.421875q-0.65625 0.140625 -1.453125 0.140625q-1.875 0 -3.140625 -1.15625q-1.265625 -1.171875 -1.265625 -2.984375q0 -1.4375 0.640625 -2.34375q0.640625 -0.921875 1.828125 -1.453125q1.171875 -0.515625 2.90625 -0.734375q1.734375 -0.234375 3.59375 -0.34375l0 -0.0625q0 -1.09375 -0.890625 -1.5q-0.890625 -0.421875 -2.625 -0.421875q-1.046875 0 -2.234375 0.375q-1.171875 0.359375 -1.6875 0.5625l-0.390625 0l0 -3.171875q0.671875 -0.1875 2.171875 -0.421875q1.515625 -0.234375 3.015625 -0.234375q3.609375 0 5.203125 1.109375q1.59375 1.09375 1.59375 3.46875l0 8.953125l-4.171875 0l0 -1.390625zm17.59375 -7.75l-0.375 0q-0.265625 -0.09375 -0.875 -0.140625q-0.59375 -0.046875 -0.984375 -0.046875q-0.90625 0 -1.59375 0.125q-0.6875 0.109375 -1.484375 0.390625l0 8.8125l-4.21875 0l0 -13.15625l4.21875 0l0 1.921875q1.390625 -1.1875 2.421875 -1.578125q1.03125 -0.390625 1.890625 -0.390625q0.234375 0 0.515625 0.015625q0.28125 0 0.484375 0.03125l0 4.015625zm10.8046875 9.015625q-0.671875 0.1875 -1.4375 0.28125q-0.765625 0.109375 -1.859375 0.109375q-2.46875 0 -3.671875 -1.0q-1.203125 -1.0 -1.203125 -3.421875l0 -6.140625l-1.734375 0l0 -2.859375l1.734375 0l0 -3.765625l4.21875 0l0 3.765625l3.953125 0l0 2.859375l-3.953125 0l0 4.65625q0 0.6875 0.015625 1.203125q0.015625 0.515625 0.1875 0.9375q0.171875 0.40625 0.578125 0.65625q0.421875 0.234375 1.21875 0.234375q0.328125 0 0.859375 -0.140625q0.53125 -0.140625 0.75 -0.265625l0.34375 0l0 2.890625zm15.480469 -5.671875l-9.65625 0q0.09375 1.546875 1.171875 2.375q1.09375 0.8125 3.203125 0.8125q1.328125 0 2.578125 -0.484375q1.265625 -0.484375 1.984375 -1.03125l0.46875 0l0 3.390625q-1.421875 0.5625 -2.6875 0.828125q-1.265625 0.265625 -2.796875 0.265625q-3.96875 0 -6.078125 -1.78125q-2.109375 -1.796875 -2.109375 -5.078125q0 -3.265625 2.0 -5.171875q2.0 -1.90625 5.484375 -1.90625q3.203125 0 4.8125 1.625q1.625 1.625 1.625 4.671875l0 1.484375zm-4.1875 -2.484375q-0.046875 -1.3125 -0.671875 -1.984375q-0.609375 -0.671875 -1.921875 -0.671875q-1.21875 0 -2.015625 0.640625q-0.78125 0.625 -0.875 2.015625l5.484375 0zm16.703125 -0.859375l-0.375 0q-0.265625 -0.09375 -0.875 -0.140625q-0.59375 -0.046875 -0.984375 -0.046875q-0.90625 0 -1.59375 0.125q-0.6875 0.109375 -1.484375 0.390625l0 8.8125l-4.21875 0l0 -13.15625l4.21875 0l0 1.921875q1.390625 -1.1875 2.421875 -1.578125q1.03125 -0.390625 1.890625 -0.390625q0.234375 0 0.515625 0.015625q0.28125 0 0.484375 0.03125l0 4.015625z" fill-rule="nonzero"></path><path fill="#000000" d="m331.87415 120.739395l-4.078125 13.15625l-4.484375 0l-2.671875 -8.875l-2.640625 8.875l-4.53125 0l-4.046875 -13.15625l4.421875 0l2.25 9.0625l2.8125 -9.0625l3.75 0l2.671875 9.0625l2.203125 -9.0625l4.34375 0zm6.7421875 13.15625l-4.21875 0l0 -13.15625l4.21875 0l0 13.15625zm0.109375 -15.03125l-4.453125 0l0 -3.203125l4.453125 0l0 3.203125zm15.21875 15.03125l-12.359375 0l0 -2.703125l6.9375 -7.375l-6.65625 0l0 -3.078125l11.953125 0l0 2.65625l-6.828125 7.359375l6.953125 0l0 3.140625zm14.3203125 0l-12.359375 0l0 -2.703125l6.9375 -7.375l-6.65625 0l0 -3.078125l11.953125 0l0 2.65625l-6.828125 7.359375l6.953125 0l0 3.140625zm7.1953125 0l-4.21875 0l0 -13.15625l4.21875 0l0 13.15625zm0.109375 -15.03125l-4.453125 0l0 -3.203125l4.453125 0l0 3.203125zm12.109375 8.953125l-8.9375 0l0 -3.375l8.9375 0l0 3.375zm7.5039062 6.078125l-4.21875 0l0 -18.234375l4.21875 0l0 18.234375zm11.953125 -3.4375l0 -2.734375q-0.859375 0.0625 -1.859375 0.1875q-1.0 0.125 -1.515625 0.28125q-0.625 0.203125 -0.96875 0.59375q-0.328125 0.375 -0.328125 1.0q0 0.40625 0.0625 0.671875q0.078125 0.25 0.359375 0.484375q0.265625 0.234375 0.640625 0.34375q0.375 0.109375 1.171875 0.109375q0.640625 0 1.28125 -0.25q0.65625 -0.265625 1.15625 -0.6875zm0 2.046875q-0.34375 0.25 -0.859375 0.625q-0.5 0.359375 -0.9375 0.5625q-0.625 0.28125 -1.296875 0.421875q-0.65625 0.140625 -1.453125 0.140625q-1.875 0 -3.140625 -1.15625q-1.265625 -1.171875 -1.265625 -2.984375q0 -1.4375 0.640625 -2.34375q0.640625 -0.921875 1.828125 -1.453125q1.171875 -0.515625 2.90625 -0.734375q1.734375 -0.234375 3.59375 -0.34375l0 -0.0625q0 -1.09375 -0.890625 -1.5q-0.890625 -0.421875 -2.625 -0.421875q-1.046875 0 -2.234375 0.375q-1.171875 0.359375 -1.6875 0.5625l-0.390625 0l0 -3.171875q0.671875 -0.1875 2.171875 -0.421875q1.515625 -0.234375 3.015625 -0.234375q3.609375 0 5.203125 1.109375q1.59375 1.09375 1.59375 3.46875l0 8.953125l-4.171875 0l0 -1.390625zm21.796875 -5.375q0 3.109375 -1.71875 5.078125q-1.71875 1.953125 -4.28125 1.953125q-1.109375 0 -1.9375 -0.25q-0.828125 -0.234375 -1.578125 -0.671875l-0.1875 0.65625l-4.03125 0l0 -18.234375l4.21875 0l0 6.4375q0.96875 -0.765625 1.984375 -1.25q1.015625 -0.484375 2.328125 -0.484375q2.5 0 3.84375 1.8125q1.359375 1.796875 1.359375 4.953125zm-4.359375 0.078125q0 -1.75 -0.59375 -2.703125q-0.59375 -0.953125 -2.125 -0.953125q-0.609375 0 -1.25 0.1875q-0.625 0.1875 -1.1875 0.515625l0 6.609375q0.453125 0.171875 0.859375 0.234375q0.40625 0.046875 0.984375 0.046875q1.671875 0 2.484375 -0.984375q0.828125 -0.984375 0.828125 -2.953125zm15.640625 0.609375l-8.9375 0l0 -3.375l8.9375 0l0 3.375zm16.082031 6.078125l-4.21875 0l0 -1.375q-1.09375 0.890625 -2.046875 1.3125q-0.953125 0.421875 -2.1875 0.421875q-2.40625 0 -3.84375 -1.84375q-1.4375 -1.859375 -1.4375 -5.0q0 -1.671875 0.484375 -2.96875q0.484375 -1.296875 1.328125 -2.21875q0.796875 -0.875 1.921875 -1.359375q1.140625 -0.5 2.28125 -0.5q1.1875 0 1.9375 0.265625q0.765625 0.25 1.5625 0.625l0 -5.59375l4.21875 0l0 18.234375zm-4.21875 -3.640625l0 -6.453125q-0.453125 -0.1875 -0.953125 -0.265625q-0.484375 -0.078125 -0.890625 -0.078125q-1.671875 0 -2.5 1.03125q-0.828125 1.03125 -0.828125 2.875q0 1.9375 0.65625 2.8125q0.671875 0.875 2.15625 0.875q0.578125 0 1.21875 -0.21875q0.640625 -0.21875 1.140625 -0.578125zm16.171875 0.203125l0 -2.734375q-0.859375 0.0625 -1.859375 0.1875q-1.0 0.125 -1.515625 0.28125q-0.625 0.203125 -0.96875 0.59375q-0.328125 0.375 -0.328125 1.0q0 0.40625 0.0625 0.671875q0.078125 0.25 0.359375 0.484375q0.265625 0.234375 0.640625 0.34375q0.375 0.109375 1.171875 0.109375q0.640625 0 1.28125 -0.25q0.65625 -0.265625 1.15625 -0.6875zm0 2.046875q-0.34375 0.25 -0.859375 0.625q-0.5 0.359375 -0.9375 0.5625q-0.625 0.28125 -1.296875 0.421875q-0.65625 0.140625 -1.453125 0.140625q-1.875 0 -3.140625 -1.15625q-1.265625 -1.171875 -1.265625 -2.984375q0 -1.4375 0.640625 -2.34375q0.640625 -0.921875 1.828125 -1.453125q1.171875 -0.515625 2.90625 -0.734375q1.734375 -0.234375 3.59375 -0.34375l0 -0.0625q0 -1.09375 -0.890625 -1.5q-0.890625 -0.421875 -2.625 -0.421875q-1.046875 0 -2.234375 0.375q-1.171875 0.359375 -1.6875 0.5625l-0.390625 0l0 -3.171875q0.671875 -0.1875 2.171875 -0.421875q1.515625 -0.234375 3.015625 -0.234375q3.609375 0 5.203125 1.109375q1.59375 1.09375 1.59375 3.46875l0 8.953125l-4.171875 0l0 -1.390625zm16.46875 1.265625q-0.671875 0.1875 -1.4375 0.28125q-0.765625 0.109375 -1.859375 0.109375q-2.46875 0 -3.671875 -1.0q-1.203125 -1.0 -1.203125 -3.421875l0 -6.140625l-1.734375 0l0 -2.859375l1.734375 0l0 -3.765625l4.21875 0l0 3.765625l3.953125 0l0 2.859375l-3.953125 0l0 4.65625q0 0.6875 0.015625 1.203125q0.015625 0.515625 0.1875 0.9375q0.171875 0.40625 0.578125 0.65625q0.421875 0.234375 1.21875 0.234375q0.328125 0 0.859375 -0.140625q0.53125 -0.140625 0.75 -0.265625l0.34375 0l0 2.890625zm10.496094 -3.3125l0 -2.734375q-0.859375 0.0625 -1.859375 0.1875q-1.0 0.125 -1.515625 0.28125q-0.625 0.203125 -0.96875 0.59375q-0.328125 0.375 -0.328125 1.0q0 0.40625 0.0625 0.671875q0.078125 0.25 0.359375 0.484375q0.265625 0.234375 0.640625 0.34375q0.375 0.109375 1.171875 0.109375q0.640625 0 1.28125 -0.25q0.65625 -0.265625 1.15625 -0.6875zm0 2.046875q-0.34375 0.25 -0.859375 0.625q-0.5 0.359375 -0.9375 0.5625q-0.625 0.28125 -1.296875 0.421875q-0.65625 0.140625 -1.453125 0.140625q-1.875 0 -3.140625 -1.15625q-1.265625 -1.171875 -1.265625 -2.984375q0 -1.4375 0.640625 -2.34375q0.640625 -0.921875 1.828125 -1.453125q1.171875 -0.515625 2.90625 -0.734375q1.734375 -0.234375 3.59375 -0.34375l0 -0.0625q0 -1.09375 -0.890625 -1.5q-0.890625 -0.421875 -2.625 -0.421875q-1.046875 0 -2.234375 0.375q-1.171875 0.359375 -1.6875 0.5625l-0.390625 0l0 -3.171875q0.671875 -0.1875 2.171875 -0.421875q1.515625 -0.234375 3.015625 -0.234375q3.609375 0 5.203125 1.109375q1.59375 1.09375 1.59375 3.46875l0 8.953125l-4.171875 0l0 -1.390625z" fill-rule="nonzero"></path><path fill="#000000" d="m331.87415 149.7394l-4.078125 13.15625l-4.484375 0l-2.671875 -8.875l-2.640625 8.875l-4.53125 0l-4.046875 -13.15625l4.421875 0l2.25 9.0625l2.8125 -9.0625l3.75 0l2.671875 9.0625l2.203125 -9.0625l4.34375 0zm6.7421875 13.15625l-4.21875 0l0 -13.15625l4.21875 0l0 13.15625zm0.109375 -15.03125l-4.453125 0l0 -3.203125l4.453125 0l0 3.203125zm15.21875 15.03125l-12.359375 0l0 -2.703125l6.9375 -7.375l-6.65625 0l0 -3.078125l11.953125 0l0 2.65625l-6.828125 7.359375l6.953125 0l0 3.140625zm14.3203125 0l-12.359375 0l0 -2.703125l6.9375 -7.375l-6.65625 0l0 -3.078125l11.953125 0l0 2.65625l-6.828125 7.359375l6.953125 0l0 3.140625zm7.1953125 0l-4.21875 0l0 -13.15625l4.21875 0l0 13.15625zm0.109375 -15.03125l-4.453125 0l0 -3.203125l4.453125 0l0 3.203125zm12.109375 8.953125l-8.9375 0l0 -3.375l8.9375 0l0 3.375zm7.5039062 6.078125l-4.21875 0l0 -18.234375l4.21875 0l0 18.234375zm11.953125 -3.4375l0 -2.734375q-0.859375 0.0625 -1.859375 0.1875q-1.0 0.125 -1.515625 0.28125q-0.625 0.203125 -0.96875 0.59375q-0.328125 0.375 -0.328125 1.0q0 0.40625 0.0625 0.671875q0.078125 0.25 0.359375 0.484375q0.265625 0.234375 0.640625 0.34375q0.375 0.109375 1.171875 0.109375q0.640625 0 1.28125 -0.25q0.65625 -0.265625 1.15625 -0.6875zm0 2.046875q-0.34375 0.25 -0.859375 0.625q-0.5 0.359375 -0.9375 0.5625q-0.625 0.28125 -1.296875 0.421875q-0.65625 0.140625 -1.453125 0.140625q-1.875 0 -3.140625 -1.15625q-1.265625 -1.171875 -1.265625 -2.984375q0 -1.4375 0.640625 -2.34375q0.640625 -0.921875 1.828125 -1.453125q1.171875 -0.515625 2.90625 -0.734375q1.734375 -0.234375 3.59375 -0.34375l0 -0.0625q0 -1.09375 -0.890625 -1.5q-0.890625 -0.421875 -2.625 -0.421875q-1.046875 0 -2.234375 0.375q-1.171875 0.359375 -1.6875 0.5625l-0.390625 0l0 -3.171875q0.671875 -0.1875 2.171875 -0.421875q1.515625 -0.234375 3.015625 -0.234375q3.609375 0 5.203125 1.109375q1.59375 1.09375 1.59375 3.46875l0 8.953125l-4.171875 0l0 -1.390625zm21.796875 -5.375q0 3.109375 -1.71875 5.078125q-1.71875 1.953125 -4.28125 1.953125q-1.109375 0 -1.9375 -0.25q-0.828125 -0.234375 -1.578125 -0.671875l-0.1875 0.65625l-4.03125 0l0 -18.234375l4.21875 0l0 6.4375q0.96875 -0.765625 1.984375 -1.25q1.015625 -0.484375 2.328125 -0.484375q2.5 0 3.84375 1.8125q1.359375 1.796875 1.359375 4.953125zm-4.359375 0.078125q0 -1.75 -0.59375 -2.703125q-0.59375 -0.953125 -2.125 -0.953125q-0.609375 0 -1.25 0.1875q-0.625 0.1875 -1.1875 0.515625l0 6.609375q0.453125 0.171875 0.859375 0.234375q0.40625 0.046875 0.984375 0.046875q1.671875 0 2.484375 -0.984375q0.828125 -0.984375 0.828125 -2.953125zm15.640625 0.609375l-8.9375 0l0 -3.375l8.9375 0l0 3.375zm11.816406 -9.0625l-0.328125 0q-0.28125 -0.078125 -0.734375 -0.1875q-0.4375 -0.109375 -0.953125 -0.109375q-1.25 0 -1.6875 0.453125q-0.4375 0.4375 -0.4375 1.71875l0 0.109375l3.25 0l0 2.859375l-3.109375 0l0 10.296875l-4.21875 0l0 -10.296875l-1.8125 0l0 -2.859375l1.8125 0l0 -0.375q0 -2.40625 1.28125 -3.609375q1.28125 -1.21875 3.890625 -1.21875q0.9375 0 1.6875 0.078125q0.765625 0.0625 1.359375 0.15625l0 2.984375zm15.058594 8.5625q0 3.25 -1.90625 5.125q-1.890625 1.859375 -5.3125 1.859375q-3.421875 0 -5.3125 -1.859375q-1.890625 -1.875 -1.890625 -5.125q0 -3.265625 1.90625 -5.125q1.90625 -1.875 5.296875 -1.875q3.453125 0 5.328125 1.875q1.890625 1.875 1.890625 5.125zm-5.203125 3.203125q0.421875 -0.5 0.625 -1.203125q0.203125 -0.71875 0.203125 -1.96875q0 -1.171875 -0.21875 -1.953125q-0.203125 -0.78125 -0.578125 -1.25q-0.375 -0.484375 -0.90625 -0.671875q-0.53125 -0.203125 -1.140625 -0.203125q-0.609375 0 -1.078125 0.171875q-0.46875 0.15625 -0.90625 0.640625q-0.390625 0.453125 -0.625 1.25q-0.21875 0.796875 -0.21875 2.015625q0 1.078125 0.1875 1.875q0.203125 0.78125 0.59375 1.265625q0.375 0.453125 0.890625 0.671875q0.53125 0.203125 1.203125 0.203125q0.5625 0 1.078125 -0.1875q0.53125 -0.203125 0.890625 -0.65625zm17.757812 -5.765625l-0.375 0q-0.265625 -0.09375 -0.875 -0.140625q-0.59375 -0.046875 -0.984375 -0.046875q-0.90625 0 -1.59375 0.125q-0.6875 0.109375 -1.484375 0.390625l0 8.8125l-4.21875 0l0 -13.15625l4.21875 0l0 1.921875q1.390625 -1.1875 2.421875 -1.578125q1.03125 -0.390625 1.890625 -0.390625q0.234375 0 0.515625 0.015625q0.28125 0 0.484375 0.03125l0 4.015625zm15.2578125 -0.1875l0 9.328125l-4.234375 0l0 -6.578125q0 -0.953125 -0.046875 -1.625q-0.046875 -0.6875 -0.265625 -1.109375q-0.203125 -0.421875 -0.640625 -0.609375q-0.421875 -0.1875 -1.203125 -0.1875q-0.609375 0 -1.203125 0.25q-0.578125 0.25 -1.046875 0.53125l0 9.328125l-4.21875 0l0 -13.15625l4.21875 0l0 1.453125q1.078125 -0.859375 2.078125 -1.34375q1.0 -0.484375 2.203125 -0.484375q1.296875 0 2.296875 0.59375q1.0 0.578125 1.5625 1.703125q1.265625 -1.078125 2.453125 -1.6875q1.203125 -0.609375 2.34375 -0.609375q2.140625 0 3.25 1.28125q1.109375 1.28125 1.109375 3.6875l0 8.5625l-4.25 0l0 -6.578125q0 -0.96875 -0.046875 -1.640625q-0.03125 -0.671875 -0.25 -1.09375q-0.1875 -0.421875 -0.625 -0.609375q-0.4375 -0.1875 -1.21875 -0.1875q-0.53125 0 -1.03125 0.1875q-0.5 0.171875 -1.234375 0.59375zm23.972656 5.15625q0 2.03125 -1.828125 3.28125q-1.828125 1.25 -5.015625 1.25q-1.75 0 -3.1875 -0.328125q-1.421875 -0.328125 -2.296875 -0.71875l0 -3.46875l0.390625 0q0.3125 0.21875 0.734375 0.484375q0.421875 0.265625 1.171875 0.5625q0.65625 0.265625 1.484375 0.46875q0.84375 0.1875 1.796875 0.1875q1.234375 0 1.828125 -0.265625q0.609375 -0.28125 0.609375 -0.828125q0 -0.46875 -0.359375 -0.6875q-0.34375 -0.21875 -1.328125 -0.421875q-0.46875 -0.109375 -1.28125 -0.21875q-0.796875 -0.125 -1.453125 -0.3125q-1.796875 -0.46875 -2.671875 -1.453125q-0.859375 -0.984375 -0.859375 -2.46875q0 -1.890625 1.796875 -3.15625q1.796875 -1.265625 4.921875 -1.265625q1.46875 0 2.828125 0.3125q1.359375 0.296875 2.109375 0.625l0 3.328125l-0.359375 0q-0.9375 -0.640625 -2.140625 -1.046875q-1.203125 -0.40625 -2.421875 -0.40625q-1.03125 0 -1.734375 0.28125q-0.6875 0.28125 -0.6875 0.796875q0 0.46875 0.3125 0.71875q0.328125 0.25 1.5 0.5q0.640625 0.125 1.375 0.25q0.75 0.125 1.5 0.3125q1.671875 0.421875 2.46875 1.359375q0.796875 0.9375 0.796875 2.328125z" fill-rule="nonzero"></path><path fill="#000000" d="m331.87415 178.7394l-4.078125 13.15625l-4.484375 0l-2.671875 -8.875l-2.640625 8.875l-4.53125 0l-4.046875 -13.15625l4.421875 0l2.25 9.0625l2.8125 -9.0625l3.75 0l2.671875 9.0625l2.203125 -9.0625l4.34375 0zm6.7421875 13.15625l-4.21875 0l0 -13.15625l4.21875 0l0 13.15625zm0.109375 -15.03125l-4.453125 0l0 -3.203125l4.453125 0l0 3.203125zm15.21875 15.03125l-12.359375 0l0 -2.703125l6.9375 -7.375l-6.65625 0l0 -3.078125l11.953125 0l0 2.65625l-6.828125 7.359375l6.953125 0l0 3.140625zm14.3203125 0l-12.359375 0l0 -2.703125l6.9375 -7.375l-6.65625 0l0 -3.078125l11.953125 0l0 2.65625l-6.828125 7.359375l6.953125 0l0 3.140625zm7.1953125 0l-4.21875 0l0 -13.15625l4.21875 0l0 13.15625zm0.109375 -15.03125l-4.453125 0l0 -3.203125l4.453125 0l0 3.203125zm12.109375 8.953125l-8.9375 0l0 -3.375l8.9375 0l0 3.375zm7.5039062 6.078125l-4.21875 0l0 -18.234375l4.21875 0l0 18.234375zm11.953125 -3.4375l0 -2.734375q-0.859375 0.0625 -1.859375 0.1875q-1.0 0.125 -1.515625 0.28125q-0.625 0.203125 -0.96875 0.59375q-0.328125 0.375 -0.328125 1.0q0 0.40625 0.0625 0.671875q0.078125 0.25 0.359375 0.484375q0.265625 0.234375 0.640625 0.34375q0.375 0.109375 1.171875 0.109375q0.640625 0 1.28125 -0.25q0.65625 -0.265625 1.15625 -0.6875zm0 2.046875q-0.34375 0.25 -0.859375 0.625q-0.5 0.359375 -0.9375 0.5625q-0.625 0.28125 -1.296875 0.421875q-0.65625 0.140625 -1.453125 0.140625q-1.875 0 -3.140625 -1.15625q-1.265625 -1.171875 -1.265625 -2.984375q0 -1.4375 0.640625 -2.34375q0.640625 -0.921875 1.828125 -1.453125q1.171875 -0.515625 2.90625 -0.734375q1.734375 -0.234375 3.59375 -0.34375l0 -0.0625q0 -1.09375 -0.890625 -1.5q-0.890625 -0.421875 -2.625 -0.421875q-1.046875 0 -2.234375 0.375q-1.171875 0.359375 -1.6875 0.5625l-0.390625 0l0 -3.171875q0.671875 -0.1875 2.171875 -0.421875q1.515625 -0.234375 3.015625 -0.234375q3.609375 0 5.203125 1.109375q1.59375 1.09375 1.59375 3.46875l0 8.953125l-4.171875 0l0 -1.390625zm21.796875 -5.375q0 3.109375 -1.71875 5.078125q-1.71875 1.953125 -4.28125 1.953125q-1.109375 0 -1.9375 -0.25q-0.828125 -0.234375 -1.578125 -0.671875l-0.1875 0.65625l-4.03125 0l0 -18.234375l4.21875 0l0 6.4375q0.96875 -0.765625 1.984375 -1.25q1.015625 -0.484375 2.328125 -0.484375q2.5 0 3.84375 1.8125q1.359375 1.796875 1.359375 4.953125zm-4.359375 0.078125q0 -1.75 -0.59375 -2.703125q-0.59375 -0.953125 -2.125 -0.953125q-0.609375 0 -1.25 0.1875q-0.625 0.1875 -1.1875 0.515625l0 6.609375q0.453125 0.171875 0.859375 0.234375q0.40625 0.046875 0.984375 0.046875q1.671875 0 2.484375 -0.984375q0.828125 -0.984375 0.828125 -2.953125zm15.640625 0.609375l-8.9375 0l0 -3.375l8.9375 0l0 3.375zm12.816406 -3.0625l-0.375 0q-0.265625 -0.09375 -0.875 -0.140625q-0.59375 -0.046875 -0.984375 -0.046875q-0.90625 0 -1.59375 0.125q-0.6875 0.109375 -1.484375 0.390625l0 8.8125l-4.21875 0l0 -13.15625l4.21875 0l0 1.921875q1.390625 -1.1875 2.421875 -1.578125q1.03125 -0.390625 1.890625 -0.390625q0.234375 0 0.515625 0.015625q0.28125 0 0.484375 0.03125l0 4.015625zm15.3515625 3.34375l-9.65625 0q0.09375 1.546875 1.171875 2.375q1.09375 0.8125 3.203125 0.8125q1.328125 0 2.578125 -0.484375q1.265625 -0.484375 1.984375 -1.03125l0.46875 0l0 3.390625q-1.421875 0.5625 -2.6875 0.828125q-1.265625 0.265625 -2.796875 0.265625q-3.96875 0 -6.078125 -1.78125q-2.109375 -1.796875 -2.109375 -5.078125q0 -3.265625 2.0 -5.171875q2.0 -1.90625 5.484375 -1.90625q3.203125 0 4.8125 1.625q1.625 1.625 1.625 4.671875l0 1.484375zm-4.1875 -2.484375q-0.046875 -1.3125 -0.671875 -1.984375q-0.609375 -0.671875 -1.921875 -0.671875q-1.21875 0 -2.015625 0.640625q-0.78125 0.625 -0.875 2.015625l5.484375 0zm18.609375 4.109375q0 2.03125 -1.828125 3.28125q-1.828125 1.25 -5.015625 1.25q-1.75 0 -3.1875 -0.328125q-1.421875 -0.328125 -2.296875 -0.71875l0 -3.46875l0.390625 0q0.3125 0.21875 0.734375 0.484375q0.421875 0.265625 1.171875 0.5625q0.65625 0.265625 1.484375 0.46875q0.84375 0.1875 1.796875 0.1875q1.234375 0 1.828125 -0.265625q0.609375 -0.28125 0.609375 -0.828125q0 -0.46875 -0.359375 -0.6875q-0.34375 -0.21875 -1.328125 -0.421875q-0.46875 -0.109375 -1.28125 -0.21875q-0.796875 -0.125 -1.453125 -0.3125q-1.796875 -0.46875 -2.671875 -1.453125q-0.859375 -0.984375 -0.859375 -2.46875q0 -1.890625 1.796875 -3.15625q1.796875 -1.265625 4.921875 -1.265625q1.46875 0 2.828125 0.3125q1.359375 0.296875 2.109375 0.625l0 3.328125l-0.359375 0q-0.9375 -0.640625 -2.140625 -1.046875q-1.203125 -0.40625 -2.421875 -0.40625q-1.03125 0 -1.734375 0.28125q-0.6875 0.28125 -0.6875 0.796875q0 0.46875 0.3125 0.71875q0.328125 0.25 1.5 0.5q0.640625 0.125 1.375 0.25q0.75 0.125 1.5 0.3125q1.671875 0.421875 2.46875 1.359375q0.796875 0.9375 0.796875 2.328125zm11.207031 4.046875q-0.671875 0.1875 -1.4375 0.28125q-0.765625 0.109375 -1.859375 0.109375q-2.46875 0 -3.671875 -1.0q-1.203125 -1.0 -1.203125 -3.421875l0 -6.140625l-1.734375 0l0 -2.859375l1.734375 0l0 -3.765625l4.21875 0l0 3.765625l3.953125 0l0 2.859375l-3.953125 0l0 4.65625q0 0.6875 0.015625 1.203125q0.015625 0.515625 0.1875 0.9375q0.171875 0.40625 0.578125 0.65625q0.421875 0.234375 1.21875 0.234375q0.328125 0 0.859375 -0.140625q0.53125 -0.140625 0.75 -0.265625l0.34375 0l0 2.890625z" fill-rule="nonzero"></path><path fill="#000000" d="m315.42102 220.89563l-4.390625 0l0 -4.609375l4.390625 0l0 4.609375zm8.671875 0l-4.390625 0l0 -4.609375l4.390625 0l0 4.609375zm8.671875 0l-4.390625 0l0 -4.609375l4.390625 0l0 4.609375z" fill-rule="nonzero"></path><path fill="#000000" fill-opacity="0.0" d="m28.475065 15.196851l246.07874 0l0 46.393703l-246.07874 0z" fill-rule="nonzero"></path><path fill="#000000" d="m47.584442 47.5806q-1.9375 0 -3.59375 -0.578125q-1.640625 -0.578125 -2.828125 -1.71875q-1.171875 -1.125 -1.828125 -2.828125q-0.65625 -1.703125 -0.65625 -3.921875q0 -2.078125 0.625 -3.765625q0.625 -1.6875 1.8125 -2.890625q1.125 -1.171875 2.8125 -1.796875q1.6875 -0.640625 3.671875 -0.640625q1.109375 0 1.984375 0.125q0.890625 0.125 1.640625 0.328125q0.78125 0.21875 1.421875 0.5q0.640625 0.265625 1.125 0.5l0 4.234375l-0.515625 0q-0.328125 -0.28125 -0.828125 -0.65625q-0.5 -0.390625 -1.140625 -0.765625q-0.640625 -0.375 -1.390625 -0.625q-0.75 -0.265625 -1.609375 -0.265625q-0.9375 0 -1.796875 0.296875q-0.859375 0.296875 -1.578125 0.984375q-0.703125 0.671875 -1.125 1.78125q-0.421875 1.09375 -0.421875 2.65625q0 1.640625 0.453125 2.75q0.46875 1.09375 1.171875 1.734375q0.71875 0.640625 1.59375 0.921875q0.875 0.265625 1.734375 0.265625q0.8125 0 1.609375 -0.234375q0.8125 -0.25 1.5 -0.671875q0.5625 -0.34375 1.046875 -0.71875q0.5 -0.390625 0.828125 -0.671875l0.46875 0l0 4.171875q-0.65625 0.28125 -1.265625 0.546875q-0.59375 0.25 -1.25 0.4375q-0.859375 0.25 -1.609375 0.375q-0.75 0.140625 -2.0625 0.140625zm22.710938 -6.921875q0 3.25 -1.90625 5.125q-1.890625 1.859375 -5.3125 1.859375q-3.421875 0 -5.3125 -1.859375q-1.890625 -1.875 -1.890625 -5.125q0 -3.265625 1.90625 -5.125q1.90625 -1.875 5.296875 -1.875q3.453125 0 5.328125 1.875q1.890625 1.875 1.890625 5.125zm-5.203125 3.203125q0.421875 -0.5 0.625 -1.203125q0.203125 -0.71875 0.203125 -1.96875q0 -1.171875 -0.21875 -1.953125q-0.203125 -0.78125 -0.578125 -1.25q-0.375 -0.484375 -0.90625 -0.671875q-0.53125 -0.203125 -1.140625 -0.203125q-0.609375 0 -1.078125 0.171875q-0.46875 0.15625 -0.90625 0.640625q-0.390625 0.453125 -0.625 1.25q-0.21875 0.796875 -0.21875 2.015625q0 1.078125 0.1875 1.875q0.203125 0.78125 0.59375 1.265625q0.375 0.453125 0.890625 0.671875q0.53125 0.203125 1.203125 0.203125q0.5625 0 1.078125 -0.1875q0.53125 -0.203125 0.890625 -0.65625zm17.757812 -5.765625l-0.375 0q-0.265625 -0.09375 -0.875 -0.140625q-0.59375 -0.046875 -0.984375 -0.046875q-0.90625 0 -1.59375 0.125q-0.6875 0.109375 -1.484375 0.390625l0 8.8125l-4.21875 0l0 -13.15625l4.21875 0l0 1.921875q1.390625 -1.1875 2.421875 -1.578125q1.03125 -0.390625 1.890625 -0.390625q0.234375 0 0.515625 0.015625q0.28125 0 0.484375 0.03125l0 4.015625zm15.3515625 3.34375l-9.65625 0q0.09375 1.546875 1.171875 2.375q1.09375 0.8125 3.203125 0.8125q1.328125 0 2.578125 -0.484375q1.265625 -0.484375 1.984375 -1.03125l0.46875 0l0 3.390625q-1.421875 0.5625 -2.6875 0.828125q-1.265625 0.265625 -2.796875 0.265625q-3.96875 0 -6.078125 -1.78125q-2.109375 -1.796875 -2.109375 -5.078125q0 -3.265625 2.0 -5.171875q2.0 -1.90625 5.484375 -1.90625q3.203125 0 4.8125 1.625q1.625 1.625 1.625 4.671875l0 1.484375zm-4.1875 -2.484375q-0.046875 -1.3125 -0.671875 -1.984375q-0.609375 -0.671875 -1.921875 -0.671875q-1.21875 0 -2.015625 0.640625q-0.78125 0.625 -0.875 2.015625l5.484375 0zm29.109375 1.515625q0 1.625 -0.5 2.96875q-0.5 1.328125 -1.3125 2.203125q-0.84375 0.90625 -1.90625 1.390625q-1.0625 0.46875 -2.28125 0.46875q-1.125 0 -1.921875 -0.25q-0.78125 -0.234375 -1.59375 -0.671875l0 5.484375l-4.21875 0l0 -17.984375l4.21875 0l0 1.359375q0.96875 -0.765625 1.984375 -1.25q1.015625 -0.484375 2.328125 -0.484375q2.46875 0 3.828125 1.8125q1.375 1.796875 1.375 4.953125zm-4.359375 0.078125q0 -1.921875 -0.65625 -2.78125q-0.65625 -0.875 -2.0625 -0.875q-0.609375 0 -1.25 0.1875q-0.625 0.1875 -1.1875 0.515625l0 6.625q0.421875 0.171875 0.890625 0.21875q0.484375 0.046875 0.953125 0.046875q1.671875 0 2.484375 -0.984375q0.828125 -0.984375 0.828125 -2.953125zm15.375 3.25l0 -2.734375q-0.859375 0.0625 -1.859375 0.1875q-1.0 0.125 -1.515625 0.28125q-0.625 0.203125 -0.96875 0.59375q-0.328125 0.375 -0.328125 1.0q0 0.40625 0.0625 0.671875q0.078125 0.25 0.359375 0.484375q0.265625 0.234375 0.640625 0.34375q0.375 0.109375 1.171875 0.109375q0.640625 0 1.28125 -0.25q0.65625 -0.265625 1.15625 -0.6875zm0 2.046875q-0.34375 0.25 -0.859375 0.625q-0.5 0.359375 -0.9375 0.5625q-0.625 0.28125 -1.296875 0.421875q-0.65625 0.140625 -1.453125 0.140625q-1.875 0 -3.140625 -1.15625q-1.265625 -1.171875 -1.265625 -2.984375q0 -1.4375 0.640625 -2.34375q0.640625 -0.921875 1.828125 -1.453125q1.171875 -0.515625 2.90625 -0.734375q1.734375 -0.234375 3.59375 -0.34375l0 -0.0625q0 -1.09375 -0.890625 -1.5q-0.890625 -0.421875 -2.625 -0.421875q-1.046875 0 -2.234375 0.375q-1.171875 0.359375 -1.6875 0.5625l-0.390625 0l0 -3.171875q0.671875 -0.1875 2.171875 -0.421875q1.515625 -0.234375 3.015625 -0.234375q3.609375 0 5.203125 1.109375q1.59375 1.09375 1.59375 3.46875l0 8.953125l-4.171875 0l0 -1.390625zm14.90625 1.75q-1.71875 0 -3.140625 -0.40625q-1.421875 -0.421875 -2.484375 -1.28125q-1.03125 -0.859375 -1.609375 -2.15625q-0.578125 -1.296875 -0.578125 -3.046875q0 -1.84375 0.609375 -3.171875q0.625 -1.34375 1.71875 -2.21875q1.078125 -0.828125 2.46875 -1.21875q1.390625 -0.390625 2.890625 -0.390625q1.34375 0 2.484375 0.296875q1.140625 0.296875 2.125 0.765625l0 3.59375l-0.59375 0q-0.25 -0.203125 -0.59375 -0.484375q-0.34375 -0.28125 -0.859375 -0.5625q-0.46875 -0.25 -1.046875 -0.421875q-0.578125 -0.171875 -1.34375 -0.171875q-1.6875 0 -2.59375 1.078125q-0.90625 1.0625 -0.90625 2.90625q0 1.90625 0.921875 2.890625q0.9375 0.984375 2.65625 0.984375q0.796875 0 1.4375 -0.1875q0.640625 -0.1875 1.0625 -0.421875q0.390625 -0.234375 0.6875 -0.484375q0.3125 -0.265625 0.578125 -0.515625l0.59375 0l0 3.59375q-1.0 0.46875 -2.09375 0.75q-1.078125 0.28125 -2.390625 0.28125zm21.246094 -0.359375l-4.921875 0l-3.6875 -5.734375l-1.140625 1.390625l0 4.34375l-4.21875 0l0 -18.234375l4.21875 0l0 10.890625l4.546875 -5.8125l4.859375 0l-4.734375 5.671875l5.078125 7.484375zm10.1015625 -3.4375l0 -2.734375q-0.859375 0.0625 -1.859375 0.1875q-1.0 0.125 -1.515625 0.28125q-0.625 0.203125 -0.96875 0.59375q-0.328125 0.375 -0.328125 1.0q0 0.40625 0.0625 0.671875q0.078125 0.25 0.359375 0.484375q0.265625 0.234375 0.640625 0.34375q0.375 0.109375 1.171875 0.109375q0.640625 0 1.28125 -0.25q0.65625 -0.265625 1.15625 -0.6875zm0 2.046875q-0.34375 0.25 -0.859375 0.625q-0.5 0.359375 -0.9375 0.5625q-0.625 0.28125 -1.296875 0.421875q-0.65625 0.140625 -1.453125 0.140625q-1.875 0 -3.140625 -1.15625q-1.265625 -1.171875 -1.265625 -2.984375q0 -1.4375 0.640625 -2.34375q0.640625 -0.921875 1.828125 -1.453125q1.171875 -0.515625 2.90625 -0.734375q1.734375 -0.234375 3.59375 -0.34375l0 -0.0625q0 -1.09375 -0.890625 -1.5q-0.890625 -0.421875 -2.625 -0.421875q-1.046875 0 -2.234375 0.375q-1.171875 0.359375 -1.6875 0.5625l-0.390625 0l0 -3.171875q0.671875 -0.1875 2.171875 -0.421875q1.515625 -0.234375 3.015625 -0.234375q3.609375 0 5.203125 1.109375q1.59375 1.09375 1.59375 3.46875l0 8.953125l-4.171875 0l0 -1.390625zm20.859375 -0.125q0 1.859375 -0.53125 3.125q-0.53125 1.265625 -1.484375 1.984375q-0.9375 0.71875 -2.28125 1.03125q-1.34375 0.328125 -3.03125 0.328125q-1.375 0 -2.703125 -0.171875q-1.328125 -0.15625 -2.296875 -0.390625l0 -3.28125l0.515625 0q0.765625 0.296875 1.875 0.546875q1.125 0.25 2.0 0.25q1.171875 0 1.90625 -0.21875q0.734375 -0.203125 1.109375 -0.609375q0.375 -0.375 0.53125 -0.96875q0.171875 -0.578125 0.171875 -1.40625l0 -0.234375q-0.765625 0.609375 -1.703125 0.984375q-0.921875 0.359375 -2.046875 0.359375q-2.765625 0 -4.265625 -1.65625q-1.5 -1.671875 -1.5 -5.078125q0 -1.625 0.453125 -2.796875q0.453125 -1.1875 1.28125 -2.078125q0.78125 -0.8125 1.90625 -1.265625q1.140625 -0.46875 2.3125 -0.46875q1.078125 0 1.9375 0.265625q0.875 0.25 1.59375 0.6875l0.15625 -0.578125l4.09375 0l0 11.640625zm-4.21875 -2.640625l0 -5.953125q-0.375 -0.15625 -0.90625 -0.234375q-0.515625 -0.09375 -0.9375 -0.09375q-1.671875 0 -2.5 0.953125q-0.828125 0.953125 -0.828125 2.65625q0 1.90625 0.703125 2.65625q0.71875 0.75 2.109375 0.75q0.625 0 1.234375 -0.203125q0.609375 -0.203125 1.125 -0.53125zm21.15625 -1.640625l-9.65625 0q0.09375 1.546875 1.171875 2.375q1.09375 0.8125 3.203125 0.8125q1.328125 0 2.578125 -0.484375q1.265625 -0.484375 1.984375 -1.03125l0.46875 0l0 3.390625q-1.421875 0.5625 -2.6875 0.828125q-1.265625 0.265625 -2.796875 0.265625q-3.96875 0 -6.078125 -1.78125q-2.109375 -1.796875 -2.109375 -5.078125q0 -3.265625 2.0 -5.171875q2.0 -1.90625 5.484375 -1.90625q3.203125 0 4.8125 1.625q1.625 1.625 1.625 4.671875l0 1.484375zm-4.1875 -2.484375q-0.046875 -1.3125 -0.671875 -1.984375q-0.609375 -0.671875 -1.921875 -0.671875q-1.21875 0 -2.015625 0.640625q-0.78125 0.625 -0.875 2.015625l5.484375 0zm18.609375 4.109375q0 2.03125 -1.828125 3.28125q-1.828125 1.25 -5.015625 1.25q-1.75 0 -3.1875 -0.328125q-1.421875 -0.328125 -2.296875 -0.71875l0 -3.46875l0.390625 0q0.3125 0.21875 0.734375 0.484375q0.421875 0.265625 1.171875 0.5625q0.65625 0.265625 1.484375 0.46875q0.84375 0.1875 1.796875 0.1875q1.234375 0 1.828125 -0.265625q0.609375 -0.28125 0.609375 -0.828125q0 -0.46875 -0.359375 -0.6875q-0.34375 -0.21875 -1.328125 -0.421875q-0.46875 -0.109375 -1.28125 -0.21875q-0.796875 -0.125 -1.453125 -0.3125q-1.796875 -0.46875 -2.671875 -1.453125q-0.859375 -0.984375 -0.859375 -2.46875q0 -1.890625 1.796875 -3.15625q1.796875 -1.265625 4.921875 -1.265625q1.46875 0 2.828125 0.3125q1.359375 0.296875 2.109375 0.625l0 3.328125l-0.359375 0q-0.9375 -0.640625 -2.140625 -1.046875q-1.203125 -0.40625 -2.421875 -0.40625q-1.03125 0 -1.734375 0.28125q-0.6875 0.28125 -0.6875 0.796875q0 0.46875 0.3125 0.71875q0.328125 0.25 1.5 0.5q0.640625 0.125 1.375 0.25q0.75 0.125 1.5 0.3125q1.671875 0.421875 2.46875 1.359375q0.796875 0.9375 0.796875 2.328125z" fill-rule="nonzero"></path><path fill="#000000" fill-opacity="0.0" d="m299.9029 15.196851l246.07874 0l0 46.393703l-246.07874 0z" fill-rule="nonzero"></path><path fill="#000000" d="m335.2154 29.783726l-4.703125 17.453125l-4.984375 0l-3.125 -11.375l-3.046875 11.375l-4.984375 0l-4.6875 -17.453125l4.6875 0l2.6875 12.015625l3.21875 -12.015625l4.484375 0l3.0625 12.015625l2.8125 -12.015625l4.578125 0zm6.9882812 17.453125l-4.21875 0l0 -13.15625l4.21875 0l0 13.15625zm0.109375 -15.03125l-4.453125 0l0 -3.203125l4.453125 0l0 3.203125zm15.21875 15.03125l-12.359375 0l0 -2.703125l6.9375 -7.375l-6.65625 0l0 -3.078125l11.953125 0l0 2.65625l-6.828125 7.359375l6.953125 0l0 3.140625zm14.3203125 0l-12.359375 0l0 -2.703125l6.9375 -7.375l-6.65625 0l0 -3.078125l11.953125 0l0 2.65625l-6.828125 7.359375l6.953125 0l0 3.140625zm7.1953125 0l-4.21875 0l0 -13.15625l4.21875 0l0 13.15625zm0.109375 -15.03125l-4.453125 0l0 -3.203125l4.453125 0l0 3.203125zm24.890625 15.03125l-12.578125 0l0 -17.453125l4.5 0l0 14.078125l8.078125 0l0 3.375zm10.449219 -3.4375l0 -2.734375q-0.859375 0.0625 -1.859375 0.1875q-1.0 0.125 -1.515625 0.28125q-0.625 0.203125 -0.96875 0.59375q-0.328125 0.375 -0.328125 1.0q0 0.40625 0.0625 0.671875q0.078125 0.25 0.359375 0.484375q0.265625 0.234375 0.640625 0.34375q0.375 0.109375 1.171875 0.109375q0.640625 0 1.28125 -0.25q0.65625 -0.265625 1.15625 -0.6875zm0 2.046875q-0.34375 0.25 -0.859375 0.625q-0.5 0.359375 -0.9375 0.5625q-0.625 0.28125 -1.296875 0.421875q-0.65625 0.140625 -1.453125 0.140625q-1.875 0 -3.140625 -1.15625q-1.265625 -1.171875 -1.265625 -2.984375q0 -1.4375 0.640625 -2.34375q0.640625 -0.921875 1.828125 -1.453125q1.171875 -0.515625 2.90625 -0.734375q1.734375 -0.234375 3.59375 -0.34375l0 -0.0625q0 -1.09375 -0.890625 -1.5q-0.890625 -0.421875 -2.625 -0.421875q-1.046875 0 -2.234375 0.375q-1.171875 0.359375 -1.6875 0.5625l-0.390625 0l0 -3.171875q0.671875 -0.1875 2.171875 -0.421875q1.515625 -0.234375 3.015625 -0.234375q3.609375 0 5.203125 1.109375q1.59375 1.09375 1.59375 3.46875l0 8.953125l-4.171875 0l0 -1.390625zm21.796875 -5.375q0 3.109375 -1.71875 5.078125q-1.71875 1.953125 -4.28125 1.953125q-1.109375 0 -1.9375 -0.25q-0.828125 -0.234375 -1.578125 -0.671875l-0.1875 0.65625l-4.03125 0l0 -18.234375l4.21875 0l0 6.4375q0.96875 -0.765625 1.984375 -1.25q1.015625 -0.484375 2.328125 -0.484375q2.5 0 3.84375 1.8125q1.359375 1.796875 1.359375 4.953125zm-4.359375 0.078125q0 -1.75 -0.59375 -2.703125q-0.59375 -0.953125 -2.125 -0.953125q-0.609375 0 -1.25 0.1875q-0.625 0.1875 -1.1875 0.515625l0 6.609375q0.453125 0.171875 0.859375 0.234375q0.40625 0.046875 0.984375 0.046875q1.671875 0 2.484375 -0.984375q0.828125 -0.984375 0.828125 -2.953125zm18.84375 2.515625q0 2.03125 -1.828125 3.28125q-1.828125 1.25 -5.015625 1.25q-1.75 0 -3.1875 -0.328125q-1.421875 -0.328125 -2.296875 -0.71875l0 -3.46875l0.390625 0q0.3125 0.21875 0.734375 0.484375q0.421875 0.265625 1.171875 0.5625q0.65625 0.265625 1.484375 0.46875q0.84375 0.1875 1.796875 0.1875q1.234375 0 1.828125 -0.265625q0.609375 -0.28125 0.609375 -0.828125q0 -0.46875 -0.359375 -0.6875q-0.34375 -0.21875 -1.328125 -0.421875q-0.46875 -0.109375 -1.28125 -0.21875q-0.796875 -0.125 -1.453125 -0.3125q-1.796875 -0.46875 -2.671875 -1.453125q-0.859375 -0.984375 -0.859375 -2.46875q0 -1.890625 1.796875 -3.15625q1.796875 -1.265625 4.921875 -1.265625q1.46875 0 2.828125 0.3125q1.359375 0.296875 2.109375 0.625l0 3.328125l-0.359375 0q-0.9375 -0.640625 -2.140625 -1.046875q-1.203125 -0.40625 -2.421875 -0.40625q-1.03125 0 -1.734375 0.28125q-0.6875 0.28125 -0.6875 0.796875q0 0.46875 0.3125 0.71875q0.328125 0.25 1.5 0.5q0.640625 0.125 1.375 0.25q0.75 0.125 1.5 0.3125q1.671875 0.421875 2.46875 1.359375q0.796875 0.9375 0.796875 2.328125z" fill-rule="nonzero"></path></g></svg>


